<svg width="274" height="48" viewBox="0 0 274 48" fill="none" xmlns="http://www.w3.org/2000/svg">
<path d="M17.76 19.384C17.248 18.4453 16.544 17.7307 15.648 17.24C14.752 16.7493 13.7067 16.504 12.512 16.504C11.1893 16.504 10.016 16.8027 8.992 17.4C7.968 17.9973 7.168 18.8507 6.592 19.96C6.016 21.0693 5.728 22.3493 5.728 23.8C5.728 25.2933 6.016 26.5947 6.592 27.704C7.18933 28.8133 8.01067 29.6667 9.056 30.264C10.1013 30.8613 11.3173 31.16 12.704 31.16C14.4107 31.16 15.808 30.712 16.896 29.816C17.984 28.8987 18.6987 27.6293 19.04 26.008H11.36V22.584H23.456V26.488C23.1573 28.0453 22.5173 29.4853 21.536 30.808C20.5547 32.1307 19.2853 33.1973 17.728 34.008C16.192 34.7973 14.464 35.192 12.544 35.192C10.3893 35.192 8.43733 34.712 6.688 33.752C4.96 32.7707 3.59467 31.416 2.592 29.688C1.61067 27.96 1.12 25.9973 1.12 23.8C1.12 21.6027 1.61067 19.64 2.592 17.912C3.59467 16.1627 4.96 14.808 6.688 13.848C8.43733 12.8667 10.3787 12.376 12.512 12.376C15.0293 12.376 17.216 12.9947 19.072 14.232C20.928 15.448 22.208 17.1653 22.912 19.384H17.76ZM29.0425 15.16C28.2532 15.16 27.5918 14.9147 27.0585 14.424C26.5465 13.912 26.2905 13.2827 26.2905 12.536C26.2905 11.7893 26.5465 11.1707 27.0585 10.68C27.5918 10.168 28.2532 9.912 29.0425 9.912C29.8318 9.912 30.4825 10.168 30.9945 10.68C31.5278 11.1707 31.7945 11.7893 31.7945 12.536C31.7945 13.2827 31.5278 13.912 30.9945 14.424C30.4825 14.9147 29.8318 15.16 29.0425 15.16ZM31.2505 17.272V35H26.7705V17.272H31.2505ZM40.8928 20.952V29.528C40.8928 30.1253 41.0314 30.5627 41.3088 30.84C41.6074 31.096 42.0981 31.224 42.7808 31.224H44.8608V35H42.0448C38.2688 35 36.3808 33.1653 36.3808 29.496V20.952H34.2688V17.272H36.3808V12.888H40.8928V17.272H44.8608V20.952H40.8928ZM66.611 12.664V35H62.131V25.496H52.563V35H48.083V12.664H52.563V21.848H62.131V12.664H66.611ZM87.7565 17.272V35H83.2445V32.76C82.6685 33.528 81.9112 34.136 80.9725 34.584C80.0552 35.0107 79.0525 35.224 77.9645 35.224C76.5778 35.224 75.3512 34.936 74.2845 34.36C73.2178 33.7627 72.3752 32.8987 71.7565 31.768C71.1592 30.616 70.8605 29.2507 70.8605 27.672V17.272H75.3405V27.032C75.3405 28.44 75.6925 29.528 76.3965 30.296C77.1005 31.0427 78.0605 31.416 79.2765 31.416C80.5138 31.416 81.4845 31.0427 82.1885 30.296C82.8925 29.528 83.2445 28.44 83.2445 27.032V17.272H87.7565ZM96.6568 19.864C97.2328 19.0107 98.0221 18.3173 99.0248 17.784C100.049 17.2507 101.211 16.984 102.513 16.984C104.027 16.984 105.393 17.3573 106.609 18.104C107.846 18.8507 108.817 19.9173 109.521 21.304C110.246 22.6693 110.609 24.2587 110.609 26.072C110.609 27.8853 110.246 29.496 109.521 30.904C108.817 32.2907 107.846 33.368 106.609 34.136C105.393 34.904 104.027 35.288 102.513 35.288C101.19 35.288 100.027 35.032 99.0248 34.52C98.0434 33.9867 97.2541 33.304 96.6568 32.472V35H92.1768V11.32H96.6568V19.864ZM106.033 26.072C106.033 25.0053 105.809 24.088 105.361 23.32C104.934 22.5307 104.358 21.9333 103.633 21.528C102.929 21.1227 102.161 20.92 101.329 20.92C100.518 20.92 99.7501 21.1333 99.0248 21.56C98.3208 21.9653 97.7448 22.5627 97.2968 23.352C96.8701 24.1413 96.6568 25.0693 96.6568 26.136C96.6568 27.2027 96.8701 28.1307 97.2968 28.92C97.7448 29.7093 98.3208 30.3173 99.0248 30.744C99.7501 31.1493 100.518 31.352 101.329 31.352C102.161 31.352 102.929 31.1387 103.633 30.712C104.358 30.2853 104.934 29.6773 105.361 28.888C105.809 28.0987 106.033 27.16 106.033 26.072Z" fill="white"/>
<path d="M148.844 16.28V21.88H156.364V25.432H148.844V31.352H157.324V35H144.364V12.632H157.324V16.28H148.844ZM171.188 35L167.54 29.496L164.308 35H159.508L165.3 26.104L159.444 17.272H164.5L168.116 22.744L171.38 17.272H176.18L170.356 26.104L176.244 35H171.188ZM183.157 19.832C183.733 19.0213 184.522 18.3493 185.525 17.816C186.549 17.2613 187.711 16.984 189.013 16.984C190.527 16.984 191.893 17.3573 193.109 18.104C194.346 18.8507 195.317 19.9173 196.021 21.304C196.746 22.6693 197.109 24.2587 197.109 26.072C197.109 27.8853 196.746 29.496 196.021 30.904C195.317 32.2907 194.346 33.368 193.109 34.136C191.893 34.904 190.527 35.288 189.013 35.288C187.711 35.288 186.559 35.0213 185.557 34.488C184.575 33.9547 183.775 33.2827 183.157 32.472V43.448H178.677V17.272H183.157V19.832ZM192.533 26.072C192.533 25.0053 192.309 24.088 191.861 23.32C191.434 22.5307 190.858 21.9333 190.133 21.528C189.429 21.1227 188.661 20.92 187.829 20.92C187.018 20.92 186.25 21.1333 185.525 21.56C184.821 21.9653 184.245 22.5627 183.797 23.352C183.37 24.1413 183.157 25.0693 183.157 26.136C183.157 27.2027 183.37 28.1307 183.797 28.92C184.245 29.7093 184.821 30.3173 185.525 30.744C186.25 31.1493 187.018 31.352 187.829 31.352C188.661 31.352 189.429 31.1387 190.133 30.712C190.858 30.2853 191.434 29.6773 191.861 28.888C192.309 28.0987 192.533 27.16 192.533 26.072ZM204.844 11.32V35H200.364V11.32H204.844ZM217.143 35.288C215.436 35.288 213.9 34.9147 212.535 34.168C211.169 33.4 210.092 32.3227 209.303 30.936C208.535 29.5493 208.151 27.9493 208.151 26.136C208.151 24.3227 208.545 22.7227 209.335 21.336C210.145 19.9493 211.244 18.8827 212.631 18.136C214.017 17.368 215.564 16.984 217.271 16.984C218.977 16.984 220.524 17.368 221.911 18.136C223.297 18.8827 224.385 19.9493 225.175 21.336C225.985 22.7227 226.391 24.3227 226.391 26.136C226.391 27.9493 225.975 29.5493 225.142 30.936C224.332 32.3227 223.223 33.4 221.815 34.168C220.428 34.9147 218.871 35.288 217.143 35.288ZM217.143 31.384C217.953 31.384 218.711 31.192 219.415 30.808C220.14 30.4027 220.716 29.8053 221.143 29.016C221.569 28.2267 221.783 27.2667 221.783 26.136C221.783 24.4507 221.335 23.16 220.439 22.264C219.564 21.3467 218.487 20.888 217.207 20.888C215.927 20.888 214.849 21.3467 213.975 22.264C213.121 23.16 212.695 24.4507 212.695 26.136C212.695 27.8213 213.111 29.1227 213.943 30.04C214.796 30.936 215.863 31.384 217.143 31.384ZM234.157 20.024C234.733 19.0853 235.479 18.3493 236.397 17.816C237.335 17.2827 238.402 17.016 239.597 17.016V21.72H238.413C237.005 21.72 235.938 22.0507 235.213 22.712C234.509 23.3733 234.157 24.5253 234.157 26.168V35H229.677V17.272H234.157V20.024ZM259.094 25.752C259.094 26.392 259.052 26.968 258.966 27.48H246.006C246.113 28.76 246.561 29.7627 247.35 30.488C248.14 31.2133 249.11 31.576 250.262 31.576C251.926 31.576 253.11 30.8613 253.814 29.432H258.646C258.134 31.1387 257.153 32.5467 255.702 33.656C254.252 34.744 252.47 35.288 250.358 35.288C248.652 35.288 247.116 34.9147 245.75 34.168C244.406 33.4 243.35 32.3227 242.582 30.936C241.836 29.5493 241.462 27.9493 241.462 26.136C241.462 24.3013 241.836 22.6907 242.582 21.304C243.329 19.9173 244.374 18.8507 245.718 18.104C247.062 17.3573 248.609 16.984 250.358 16.984C252.044 16.984 253.548 17.3467 254.87 18.072C256.214 18.7973 257.249 19.832 257.974 21.176C258.721 22.4987 259.094 24.024 259.094 25.752ZM254.454 24.472C254.433 23.32 254.017 22.4027 253.206 21.72C252.396 21.016 251.404 20.664 250.23 20.664C249.121 20.664 248.182 21.0053 247.414 21.688C246.668 22.3493 246.209 23.2773 246.038 24.472H254.454ZM266.844 20.024C267.42 19.0853 268.167 18.3493 269.084 17.816C270.023 17.2827 271.09 17.016 272.284 17.016V21.72H271.1C269.692 21.72 268.626 22.0507 267.9 22.712C267.196 23.3733 266.844 24.5253 266.844 26.168V35H262.364V17.272H266.844V20.024Z" fill="#7B5AD9"/>
<path d="M123.757 31.0711C122.343 35.3137 116.686 35.3137 116.686 35.3137C116.686 35.3137 116.686 29.6569 120.929 28.2426" stroke="black" stroke-width="2" stroke-linecap="round" stroke-linejoin="round"/>
<path d="M136.485 21.1716L128 29.6569L122.343 24L130.828 15.5147C134.041 12.3017 137.254 12.333 138.625 12.5375C138.836 12.5689 139.031 12.6673 139.182 12.8182C139.333 12.969 139.431 13.1643 139.463 13.3753C139.667 14.7455 139.698 17.9586 136.485 21.1716Z" stroke="black" stroke-width="2" stroke-linecap="round" stroke-linejoin="round"/>
<path d="M135.071 22.5858V30.6569C135.071 30.7882 135.045 30.9182 134.995 31.0395C134.945 31.1609 134.871 31.2711 134.778 31.364L130.735 35.4067C130.607 35.5347 130.447 35.6255 130.272 35.6695C130.096 35.7136 129.912 35.7091 129.739 35.6567C129.565 35.6042 129.41 35.5057 129.288 35.3717C129.166 35.2377 129.083 35.0732 129.048 34.8957L128 29.6569" stroke="black" stroke-width="2" stroke-linecap="round" stroke-linejoin="round"/>
<path d="M129.414 16.9289H121.343C121.212 16.9289 121.082 16.9548 120.96 17.0051C120.839 17.0553 120.729 17.129 120.636 17.2218L116.593 21.2645C116.465 21.3925 116.374 21.5529 116.33 21.7284C116.286 21.904 116.291 22.0882 116.343 22.2614C116.396 22.4347 116.494 22.5904 116.628 22.7121C116.762 22.8337 116.927 22.9167 117.104 22.9522L122.343 24" stroke="black" stroke-width="2" stroke-linecap="round" stroke-linejoin="round"/>
</svg>
